ISO-10303-21;
HEADER;
FILE_DESCRIPTION (( 'STEP AP214' ),
    '1' );
FILE_NAME ('SOD-123FL.STEP',
    '2018-09-21T05:47:27',
    ( '' ),
    ( '' ),
    'SwSTEP 2.0',
    'SolidWorks 2013',
    '' );
FILE_SCHEMA (( 'AUTOMOTIVE_DESIGN' ));
ENDSEC;

DATA;
#1 = ORIENTED_EDGE ( 'NONE', *, *, #373, .F. ) ;
#2 = SURFACE_STYLE_USAGE ( .BOTH. , #336 ) ;
#3 =( NAMED_UNIT ( * ) PLANE_ANGLE_UNIT ( ) SI_UNIT ( $, .RADIAN. ) );
#4 = LINE ( 'NONE', #288, #134 ) ;
#5 = ORIENTED_EDGE ( 'NONE', *, *, #450, .F. ) ;
#6 = SURFACE_SIDE_STYLE ('',( #357 ) ) ;
#7 = COLOUR_RGB ( '',0.7764705882352941300, 0.7568627450980391900, 0.7372549019607843600 ) ;
#8 = ADVANCED_FACE ( 'NONE', ( #468 ), #195, .T. ) ;
#9 = UNCERTAINTY_MEASURE_WITH_UNIT (LENGTH_MEASURE( 1.000000000000000100E-005 ), #485, 'distance_accuracy_value', 'NONE');
#10 = SURFACE_STYLE_USAGE ( .BOTH. , #6 ) ;
#11 = STYLED_ITEM ( 'NONE', ( #326 ), #318 ) ;
#12 = SURFACE_SIDE_STYLE ('',( #370 ) ) ;
#13 = PRESENTATION_STYLE_ASSIGNMENT (( #2 ) ) ;
#14 = ORIENTED_EDGE ( 'NONE', *, *, #108, .F. ) ;
#15 = PRESENTATION_LAYER_ASSIGNMENT (  '', '', ( #792 ) ) ;
#16 = DIRECTION ( 'NONE',  ( -0.1391731009600654700, -0.9902680687415703600, 0.0000000000000000000 ) ) ;
#17 =( GEOMETRIC_REPRESENTATION_CONTEXT ( 3 ) GLOBAL_UNCERTAINTY_ASSIGNED_CONTEXT ( ( #641 ) ) GLOBAL_UNIT_ASSIGNED_CONTEXT ( ( #139, #333, #747 ) ) REPRESENTATION_CONTEXT ( 'NONE', 'WORKASPACE' ) );
#18 =( NAMED_UNIT ( * ) SI_UNIT ( $, .STERADIAN. ) SOLID_ANGLE_UNIT ( ) );
#19 = CARTESIAN_POINT ( 'NONE',  ( -1.850000000000019200, 0.1499999999999999900, 0.4749999999999945900 ) ) ;
#20 = ORIENTED_EDGE ( 'NONE', *, *, #373, .T. ) ;
#21 = PRESENTATION_STYLE_ASSIGNMENT (( #276 ) ) ;
#22 = DIRECTION ( 'NONE',  ( -0.0000000000000000000, 0.0000000000000000000, 1.000000000000000000 ) ) ;
#23 =( LENGTH_UNIT ( ) NAMED_UNIT ( * ) SI_UNIT ( .MILLI., .METRE. ) );
#24 =( GEOMETRIC_REPRESENTATION_CONTEXT ( 3 ) GLOBAL_UNCERTAINTY_ASSIGNED_CONTEXT ( ( #38 ) ) GLOBAL_UNIT_ASSIGNED_CONTEXT ( ( #512, #138, #204 ) ) REPRESENTATION_CONTEXT ( 'NONE', 'WORKASPACE' ) );
#25 = MECHANICAL_DESIGN_GEOMETRIC_PRESENTATION_REPRESENTATION (  '', ( #640 ), #127 ) ;
#26 =( NAMED_UNIT ( * ) PLANE_ANGLE_UNIT ( ) SI_UNIT ( $, .RADIAN. ) );
#27 = COLOUR_RGB ( '',0.7764705882352941300, 0.7568627450980391900, 0.7372549019607843600 ) ;
#28 = EDGE_CURVE ( 'NONE', #351, #632, #768, .T. ) ;
#29 = DIRECTION ( 'NONE',  ( 1.000000000000000000, -0.0000000000000000000, -0.0000000000000000000 ) ) ;
#30 = SURFACE_SIDE_STYLE ('',( #500 ) ) ;
#31 = LINE ( 'NONE', #202, #514 ) ;
#32 = VECTOR ( 'NONE', #775, 1000.000000000000000 ) ;
#33 = LINE ( 'NONE', #417, #678 ) ;
#34 = ORIENTED_EDGE ( 'NONE', *, *, #46, .T. ) ;
#35 = MECHANICAL_DESIGN_GEOMETRIC_PRESENTATION_REPRESENTATION (  '', ( #437 ), #121 ) ;
#36 = CARTESIAN_POINT ( 'NONE',  ( -1.850000000000019000, -0.004000000000000000100, -0.4750000000000054200 ) ) ;
#37 = FILL_AREA_STYLE_COLOUR ( '', #665 ) ;
#38 = UNCERTAINTY_MEASURE_WITH_UNIT (LENGTH_MEASURE( 1.000000000000000100E-005 ), #512, 'distance_accuracy_value', 'NONE');
#39 = CARTESIAN_POINT ( 'NONE',  ( -1.250000000000019300, -0.004000000000000000100, -0.4750000000000054200 ) ) ;
#40 = CARTESIAN_POINT ( 'NONE',  ( -1.850000000000019200, -0.004000000000000000100, 0.4749999999999945900 ) ) ;
#41 = PRESENTATION_LAYER_ASSIGNMENT (  '', '', ( #618 ) ) ;
#42 = CARTESIAN_POINT ( 'NONE',  ( -1.250000000000019300, -0.004000000000000000100, 0.4749999999999945900 ) ) ;
#43 = DIRECTION ( 'NONE',  ( -1.000000000000000000, -0.0000000000000000000, 0.0000000000000000000 ) ) ;
#44 = ORIENTED_EDGE ( 'NONE', *, *, #709, .F. ) ;
#45 = ORIENTED_EDGE ( 'NONE', *, *, #148, .F. ) ;
#46 = EDGE_CURVE ( 'NONE', #561, #446, #526, .T. ) ;
#47 = CARTESIAN_POINT ( 'NONE',  ( -1.850000000000019200, -0.004000000000000000100, 0.4749999999999945900 ) ) ;
#48 =( LENGTH_UNIT ( ) NAMED_UNIT ( * ) SI_UNIT ( .MILLI., .METRE. ) );
#49 = PRESENTATION_LAYER_ASSIGNMENT (  '', '', ( #652 ) ) ;
#50 = CARTESIAN_POINT ( 'NONE',  ( 1.259459165297579300, 1.000000000000000000, -0.9000000000000049100 ) ) ;
#51 = LINE ( 'NONE', #635, #767 ) ;
#52 = SURFACE_STYLE_FILL_AREA ( #483 ) ;
#53 = DIRECTION ( 'NONE',  ( -1.000000000000000000, 0.0000000000000000000, 0.0000000000000000000 ) ) ;
#54 = COLOUR_RGB ( '',0.2509803921568627400, 0.2509803921568627400, 0.2509803921568627400 ) ;
#55 =( GEOMETRIC_REPRESENTATION_CONTEXT ( 3 ) GLOBAL_UNCERTAINTY_ASSIGNED_CONTEXT ( ( #264 ) ) GLOBAL_UNIT_ASSIGNED_CONTEXT ( ( #364, #668, #304 ) ) REPRESENTATION_CONTEXT ( 'NONE', 'WORKASPACE' ) );
#56 = ADVANCED_FACE ( 'NONE', ( #624 ), #332, .T. ) ;
#57 = CARTESIAN_POINT ( 'NONE',  ( 1.850000000000019200, 0.1499999999999999900, 0.4749999999999945900 ) ) ;
#58 =( GEOMETRIC_REPRESENTATION_CONTEXT ( 3 ) GLOBAL_UNCERTAINTY_ASSIGNED_CONTEXT ( ( #606 ) ) GLOBAL_UNIT_ASSIGNED_CONTEXT ( ( #206, #401, #18 ) ) REPRESENTATION_CONTEXT ( 'NONE', 'WORKASPACE' ) );
#59 = COLOUR_RGB ( '',0.7764705882352941300, 0.7568627450980391900, 0.7372549019607843600 ) ;
#60 = ORIENTED_EDGE ( 'NONE', *, *, #506, .F. ) ;
#61 = ORIENTED_EDGE ( 'NONE', *, *, #325, .T. ) ;
#62 = FACE_OUTER_BOUND ( 'NONE', #443, .T. ) ;
#63 = ORIENTED_EDGE ( 'NONE', *, *, #731, .F. ) ;
#64 = EDGE_CURVE ( 'NONE', #446, #397, #411, .T. ) ;
#65 = DIRECTION ( 'NONE',  ( 0.0000000000000000000, -0.0000000000000000000, -1.000000000000000000 ) ) ;
#66 = MECHANICAL_DESIGN_GEOMETRIC_PRESENTATION_REPRESENTATION (  '', ( #96 ), #447 ) ;
#67 = CARTESIAN_POINT ( 'NONE',  ( -1.400000000000019200, 1.000000000000000000, -0.7594591652976139300 ) ) ;
#68 =( LENGTH_UNIT ( ) NAMED_UNIT ( * ) SI_UNIT ( .MILLI., .METRE. ) );
#69 =( NAMED_UNIT ( * ) SI_UNIT ( $, .STERADIAN. ) SOLID_ANGLE_UNIT ( ) );
#70 = CARTESIAN_POINT ( 'NONE',  ( -1.250000000000019300, 0.1499999999999999900, 0.4749999999999945900 ) ) ;
#71 = PRESENTATION_LAYER_ASSIGNMENT (  '', '', ( #684 ) ) ;
#72 = ADVANCED_FACE ( 'NONE', ( #755 ), #308, .F. ) ;
#73 = SURFACE_STYLE_FILL_AREA ( #798 ) ;
#74 = UNCERTAINTY_MEASURE_WITH_UNIT (LENGTH_MEASURE( 1.000000000000000100E-005 ), #302, 'distance_accuracy_value', 'NONE');
#75 = PRODUCT_RELATED_PRODUCT_CATEGORY ( 'part', '', ( #297 ) ) ;
#76 = LINE ( 'NONE', #471, #95 ) ;
#77 = VECTOR ( 'NONE', #228, 1000.000000000000000 ) ;
#78 = VECTOR ( 'NONE', #178, 1000.000000000000000 ) ;
#79 = CARTESIAN_POINT ( 'NONE',  ( -1.259459165297627900, 1.000000000000000000, -0.9000000000000053500 ) ) ;
#80 = EDGE_CURVE ( 'NONE', #632, #456, #497, .T. ) ;
#81 = DIRECTION ( 'NONE',  ( 1.000000000000000000, -0.0000000000000000000, -0.0000000000000000000 ) ) ;
#82 = DIRECTION ( 'NONE',  ( 0.9902680687415703600, 0.1391731009600654700, -3.817425036347147500E-015 ) ) ;
#83 = DIRECTION ( 'NONE',  ( -1.000000000000000000, 0.0000000000000000000, 0.0000000000000000000 ) ) ;
#84 = PRESENTATION_STYLE_ASSIGNMENT (( #528 ) ) ;
#85 = EDGE_LOOP ( 'NONE', ( #211, #173, #258, #801 ) ) ;
#86 = MECHANICAL_DESIGN_GEOMETRIC_PRESENTATION_REPRESENTATION (  '', ( #618 ), #183 ) ;
#87 = ORIENTED_EDGE ( 'NONE', *, *, #266, .F. ) ;
#88 =( NAMED_UNIT ( * ) SI_UNIT ( $, .STERADIAN. ) SOLID_ANGLE_UNIT ( ) );
#89 = VERTEX_POINT ( 'NONE', #39 ) ;
#90 = PRODUCT_CONTEXT ( 'NONE', #149, 'mechanical' ) ;
#91 = EDGE_CURVE ( 'NONE', #116, #442, #478, .T. ) ;
#92 = DIRECTION ( 'NONE',  ( 0.1378445374916291700, -0.9808148484639890300, 0.1378445374916286400 ) ) ;
#93 = ORIENTED_EDGE ( 'NONE', *, *, #625, .F. ) ;
#94 = COLOUR_RGB ( '',0.7764705882352941300, 0.7568627450980391900, 0.7372549019607843600 ) ;
#95 = VECTOR ( 'NONE', #218, 1000.000000000000000 ) ;
#96 = STYLED_ITEM ( 'NONE', ( #673 ), #592 ) ;
#97 =( NAMED_UNIT ( * ) SI_UNIT ( $, .STERADIAN. ) SOLID_ANGLE_UNIT ( ) );
#98 =( LENGTH_UNIT ( ) NAMED_UNIT ( * ) SI_UNIT ( .MILLI., .METRE. ) );
#99 = PLANE ( 'NONE',  #521 ) ;
#100 = PRESENTATION_STYLE_ASSIGNMENT (( #599 ) ) ;
#101 = DIRECTION ( 'NONE',  ( 0.0000000000000000000, -0.0000000000000000000, 1.000000000000000000 ) ) ;
#102 = PRESENTATION_LAYER_ASSIGNMENT (  '', '', ( #640 ) ) ;
#103 =( LENGTH_UNIT ( ) NAMED_UNIT ( * ) SI_UNIT ( .MILLI., .METRE. ) );
#104 = CARTESIAN_POINT ( 'NONE',  ( 1.850000000000019200, 0.1499999999999999900, 0.4749999999999945900 ) ) ;
#105 = ORIENTED_EDGE ( 'NONE', *, *, #450, .T. ) ;
#106 = DIRECTION ( 'NONE',  ( 0.0000000000000000000, 0.0000000000000000000, 1.000000000000000000 ) ) ;
#107 = DIRECTION ( 'NONE',  ( 2.282530889443167000E-016, 0.0000000000000000000, 1.000000000000000000 ) ) ;
#108 = EDGE_CURVE ( 'NONE', #561, #461, #533, .T. ) ;
#109 = UNCERTAINTY_MEASURE_WITH_UNIT (LENGTH_MEASURE( 1.000000000000000100E-005 ), #714, 'distance_accuracy_value', 'NONE');
#110 =( NAMED_UNIT ( * ) PLANE_ANGLE_UNIT ( ) SI_UNIT ( $, .RADIAN. ) );
#111 =( GEOMETRIC_REPRESENTATION_CONTEXT ( 3 ) GLOBAL_UNCERTAINTY_ASSIGNED_CONTEXT ( ( #735 ) ) GLOBAL_UNIT_ASSIGNED_CONTEXT ( ( #469, #354, #217 ) ) REPRESENTATION_CONTEXT ( 'NONE', 'WORKASPACE' ) );
#112 = SURFACE_STYLE_USAGE ( .BOTH. , #548 ) ;
#113 = ORIENTED_EDGE ( 'NONE', *, *, #91, .F. ) ;
#114 = FACE_OUTER_BOUND ( 'NONE', #85, .T. ) ;
#115 = PRESENTATION_LAYER_ASSIGNMENT (  '', '', ( #366 ) ) ;
#116 = VERTEX_POINT ( 'NONE', #772 ) ;
#117 = MECHANICAL_DESIGN_GEOMETRIC_PRESENTATION_REPRESENTATION (  '', ( #684 ), #260 ) ;
#118 = DIRECTION ( 'NONE',  ( -3.854941057726237900E-015, -0.0000000000000000000, -1.000000000000000000 ) ) ;
#119 =( NAMED_UNIT ( * ) PLANE_ANGLE_UNIT ( ) SI_UNIT ( $, .RADIAN. ) );
#120 = ADVANCED_FACE ( 'NONE', ( #515 ), #662, .F. ) ;
#121 =( GEOMETRIC_REPRESENTATION_CONTEXT ( 3 ) GLOBAL_UNCERTAINTY_ASSIGNED_CONTEXT ( ( #420 ) ) GLOBAL_UNIT_ASSIGNED_CONTEXT ( ( #701, #460, #643 ) ) REPRESENTATION_CONTEXT ( 'NONE', 'WORKASPACE' ) );
#122 = SURFACE_STYLE_USAGE ( .BOTH. , #498 ) ;
#123 = LINE ( 'NONE', #253, #441 ) ;
#124 = ORIENTED_EDGE ( 'NONE', *, *, #657, .F. ) ;
#125 = UNCERTAINTY_MEASURE_WITH_UNIT (LENGTH_MEASURE( 1.000000000000000100E-005 ), #590, 'distance_accuracy_value', 'NONE');
#126 = ORIENTED_EDGE ( 'NONE', *, *, #266, .T. ) ;
#127 =( GEOMETRIC_REPRESENTATION_CONTEXT ( 3 ) GLOBAL_UNCERTAINTY_ASSIGNED_CONTEXT ( ( #763 ) ) GLOBAL_UNIT_ASSIGNED_CONTEXT ( ( #98, #664, #658 ) ) REPRESENTATION_CONTEXT ( 'NONE', 'WORKASPACE' ) );
#128 = EDGE_CURVE ( 'NONE', #517, #89, #259, .T. ) ;
#129 = FACE_OUTER_BOUND ( 'NONE', #257, .T. ) ;
#130 = DIRECTION ( 'NONE',  ( -0.0000000000000000000, -0.0000000000000000000, 1.000000000000000000 ) ) ;
#131 = DIRECTION ( 'NONE',  ( -1.000000000000000000, 0.0000000000000000000, -0.0000000000000000000 ) ) ;
#132 = ORIENTED_EDGE ( 'NONE', *, *, #80, .T. ) ;
#133 =( NAMED_UNIT ( * ) PLANE_ANGLE_UNIT ( ) SI_UNIT ( $, .RADIAN. ) );
#134 = VECTOR ( 'NONE', #29, 1000.000000000000000 ) ;
#135 = CARTESIAN_POINT ( 'NONE',  ( 0.0000000000000000000, 1.000000000000000000, 0.0000000000000000000 ) ) ;
#136 =( NAMED_UNIT ( * ) PLANE_ANGLE_UNIT ( ) SI_UNIT ( $, .RADIAN. ) );
#137 = ADVANCED_FACE ( 'NONE', ( #733 ), #470, .F. ) ;
#138 =( NAMED_UNIT ( * ) PLANE_ANGLE_UNIT ( ) SI_UNIT ( $, .RADIAN. ) );
#139 =( LENGTH_UNIT ( ) NAMED_UNIT ( * ) SI_UNIT ( .MILLI., .METRE. ) );
#140 = ORIENTED_EDGE ( 'NONE', *, *, #547, .F. ) ;
#141 = CARTESIAN_POINT ( 'NONE',  ( -1.850000000000019200, 0.1499999999999999900, 0.4749999999999945900 ) ) ;
#142 = VECTOR ( 'NONE', #295, 1000.000000000000000 ) ;
#143 = PRESENTATION_STYLE_ASSIGNMENT (( #509 ) ) ;
#144 = ORIENTED_EDGE ( 'NONE', *, *, #28, .F. ) ;
#145 = CARTESIAN_POINT ( 'NONE',  ( -1.400000000000019200, 0.0000000000000000000, -0.9000000000000053500 ) ) ;
#146 = LINE ( 'NONE', #104, #252 ) ;
#147 = APPLICATION_PROTOCOL_DEFINITION ( 'draft international standard', 'automotive_design', 1998, #213 ) ;
#148 = EDGE_CURVE ( 'NONE', #456, #399, #551, .T. ) ;
#149 = APPLICATION_CONTEXT ( 'automotive_design' ) ;
#150 = ORIENTED_EDGE ( 'NONE', *, *, #762, .F. ) ;
#151 = DIRECTION ( 'NONE',  ( 0.0000000000000000000, -0.0000000000000000000, -1.000000000000000000 ) ) ;
#152 = LINE ( 'NONE', #141, #790 ) ;
#153 = ORIENTED_EDGE ( 'NONE', *, *, #644, .T. ) ;
#154 =( NAMED_UNIT ( * ) SI_UNIT ( $, .STERADIAN. ) SOLID_ANGLE_UNIT ( ) );
#155 = CARTESIAN_POINT ( 'NONE',  ( -1.850000000000019000, -0.004000000000000000100, -0.4750000000000054200 ) ) ;
#156 = MECHANICAL_DESIGN_GEOMETRIC_PRESENTATION_REPRESENTATION (  '', ( #366 ), #410 ) ;
#157 = MECHANICAL_DESIGN_GEOMETRIC_PRESENTATION_REPRESENTATION (  '', ( #246 ), #335 ) ;
#158 = DIRECTION ( 'NONE',  ( 1.000000000000000000, 0.0000000000000000000, 0.0000000000000000000 ) ) ;
#159 = DIRECTION ( 'NONE',  ( -1.000000000000000000, -0.0000000000000000000, -0.0000000000000000000 ) ) ;
#160 = DIRECTION ( 'NONE',  ( -0.0000000000000000000, 1.000000000000000000, -0.0000000000000000000 ) ) ;
#161 = UNCERTAINTY_MEASURE_WITH_UNIT (LENGTH_MEASURE( 1.000000000000000100E-005 ), #267, 'distance_accuracy_value', 'NONE');
#162 = CARTESIAN_POINT ( 'NONE',  ( 0.0000000000000000000, 0.1499999999999999900, 0.0000000000000000000 ) ) ;
#163 = FILL_AREA_STYLE ('',( #409 ) ) ;
#164 =( GEOMETRIC_REPRESENTATION_CONTEXT ( 3 ) GLOBAL_UNCERTAINTY_ASSIGNED_CONTEXT ( ( #554 ) ) GLOBAL_UNIT_ASSIGNED_CONTEXT ( ( #628, #454, #574 ) ) REPRESENTATION_CONTEXT ( 'NONE', 'WORKASPACE' ) );
#165 = ORIENTED_EDGE ( 'NONE', *, *, #582, .F. ) ;
#166 = DIRECTION ( 'NONE',  ( -0.0000000000000000000, 1.000000000000000000, -0.0000000000000000000 ) ) ;
#167 = VERTEX_POINT ( 'NONE', #480 ) ;
#168 = COLOUR_RGB ( '',0.7764705882352941300, 0.7568627450980391900, 0.7372549019607843600 ) ;
#169 =( NAMED_UNIT ( * ) PLANE_ANGLE_UNIT ( ) SI_UNIT ( $, .RADIAN. ) );
#170 = AXIS2_PLACEMENT_3D ( 'NONE', #495, #728, #435 ) ;
#171 = FILL_AREA_STYLE_COLOUR ( '', #602 ) ;
#172 = CARTESIAN_POINT ( 'NONE',  ( -1.850000000000019200, 0.1499999999999999900, 0.4749999999999945900 ) ) ;
#173 = ORIENTED_EDGE ( 'NONE', *, *, #625, .T. ) ;
#174 =( NAMED_UNIT ( * ) SI_UNIT ( $, .STERADIAN. ) SOLID_ANGLE_UNIT ( ) );
#175 = VECTOR ( 'NONE', #159, 1000.000000000000000 ) ;
#176 = SURFACE_STYLE_FILL_AREA ( #463 ) ;
#177 = EDGE_LOOP ( 'NONE', ( #126, #671, #752, #626 ) ) ;
#178 = DIRECTION ( 'NONE',  ( 2.282530889443167500E-016, -0.0000000000000000000, -1.000000000000000000 ) ) ;
#179 = COLOUR_RGB ( '',0.7764705882352941300, 0.7568627450980391900, 0.7372549019607843600 ) ;
#180 = CARTESIAN_POINT ( 'NONE',  ( 1.399999999999970600, 0.0000000000000000000, -0.9000000000000053500 ) ) ;
#181 = DIRECTION ( 'NONE',  ( -3.854941057726237900E-015, 0.0000000000000000000, -1.000000000000000000 ) ) ;
#182 = FACE_OUTER_BOUND ( 'NONE', #177, .T. ) ;
#183 =( GEOMETRIC_REPRESENTATION_CONTEXT ( 3 ) GLOBAL_UNCERTAINTY_ASSIGNED_CONTEXT ( ( #74 ) ) GLOBAL_UNIT_ASSIGNED_CONTEXT ( ( #302, #26, #97 ) ) REPRESENTATION_CONTEXT ( 'NONE', 'WORKASPACE' ) );
#184 = VECTOR ( 'NONE', #92, 1000.000000000000200 ) ;
#185 = VECTOR ( 'NONE', #577, 1000.000000000000200 ) ;
#186 = ORIENTED_EDGE ( 'NONE', *, *, #462, .F. ) ;
#187 =( NAMED_UNIT ( * ) SI_UNIT ( $, .STERADIAN. ) SOLID_ANGLE_UNIT ( ) );
#188 = ORIENTED_EDGE ( 'NONE', *, *, #28, .T. ) ;
#189 = MECHANICAL_DESIGN_GEOMETRIC_PRESENTATION_REPRESENTATION (  '', ( #792 ), #24 ) ;
#190 = ORIENTED_EDGE ( 'NONE', *, *, #325, .F. ) ;
#191 =( NAMED_UNIT ( * ) SI_UNIT ( $, .STERADIAN. ) SOLID_ANGLE_UNIT ( ) );
#192 = COLOUR_RGB ( '',0.7764705882352941300, 0.7568627450980391900, 0.7372549019607843600 ) ;
#193 = VECTOR ( 'NONE', #130, 1000.000000000000000 ) ;
#194 = STYLED_ITEM ( 'NONE', ( #247 ), #620 ) ;
#195 = PLANE ( 'NONE',  #576 ) ;
#196 = UNCERTAINTY_MEASURE_WITH_UNIT (LENGTH_MEASURE( 1.000000000000000100E-005 ), #286, 'distance_accuracy_value', 'NONE');
#197 = DIRECTION ( 'NONE',  ( 0.0000000000000000000, -0.0000000000000000000, 1.000000000000000000 ) ) ;
#198 = FILL_AREA_STYLE ('',( #503 ) ) ;
#199 = DIRECTION ( 'NONE',  ( 0.0000000000000000000, 1.000000000000000000, 0.0000000000000000000 ) ) ;
#200 = DIRECTION ( 'NONE',  ( -0.0000000000000000000, 0.0000000000000000000, 1.000000000000000000 ) ) ;
#201 = AXIS2_PLACEMENT_3D ( 'NONE', #224, #158, #467 ) ;
#202 = CARTESIAN_POINT ( 'NONE',  ( 1.850000000000019200, 0.1499999999999999900, 0.4749999999999945900 ) ) ;
#203 = SURFACE_STYLE_FILL_AREA ( #198 ) ;
#204 =( NAMED_UNIT ( * ) SI_UNIT ( $, .STERADIAN. ) SOLID_ANGLE_UNIT ( ) );
#205 = VECTOR ( 'NONE', #166, 1000.000000000000000 ) ;
#206 =( LENGTH_UNIT ( ) NAMED_UNIT ( * ) SI_UNIT ( .MILLI., .METRE. ) );
#207 = DIRECTION ( 'NONE',  ( -0.1391731009600654700, 0.9902680687415703600, 0.0000000000000000000 ) ) ;
#208 = SURFACE_STYLE_FILL_AREA ( #287 ) ;
#209 = PLANE ( 'NONE',  #254 ) ;
#210 = UNCERTAINTY_MEASURE_WITH_UNIT (LENGTH_MEASURE( 1.000000000000000100E-005 ), #23, 'distance_accuracy_value', 'NONE');
#211 = ORIENTED_EDGE ( 'NONE', *, *, #108, .T. ) ;
#212 = ORIENTED_EDGE ( 'NONE', *, *, #547, .T. ) ;
#213 = APPLICATION_CONTEXT ( 'automotive_design' ) ;
#214 = EDGE_CURVE ( 'NONE', #89, #703, #33, .T. ) ;
#215 = FILL_AREA_STYLE ('',( #707 ) ) ;
#216 = SURFACE_SIDE_STYLE ('',( #261 ) ) ;
#217 =( NAMED_UNIT ( * ) SI_UNIT ( $, .STERADIAN. ) SOLID_ANGLE_UNIT ( ) );
#218 = DIRECTION ( 'NONE',  ( 0.0000000000000000000, 0.0000000000000000000, -1.000000000000000000 ) ) ;
#219 = MECHANICAL_DESIGN_GEOMETRIC_PRESENTATION_REPRESENTATION (  '', ( #652 ), #748 ) ;
#220 = FILL_AREA_STYLE_COLOUR ( '', #611 ) ;
#221 = CARTESIAN_POINT ( 'NONE',  ( -1.400000000000019200, 0.0000000000000000000, -0.9000000000000053500 ) ) ;
#222 = CARTESIAN_POINT ( 'NONE',  ( -1.259459165297627900, 1.000000000000000000, -0.7594591652976139300 ) ) ;
#223 = VECTOR ( 'NONE', #598, 1000.000000000000200 ) ;
#224 = CARTESIAN_POINT ( 'NONE',  ( 1.250000000000019300, -0.004000000000000000100, 0.4749999999999945900 ) ) ;
#225 = FILL_AREA_STYLE_COLOUR ( '', #695 ) ;
#226 = FILL_AREA_STYLE_COLOUR ( '', #7 ) ;
#227 = VECTOR ( 'NONE', #418, 1000.000000000000000 ) ;
#228 = DIRECTION ( 'NONE',  ( 1.000000000000000000, 0.0000000000000000000, 0.0000000000000000000 ) ) ;
#229 = FILL_AREA_STYLE ('',( #723 ) ) ;
#230 = CARTESIAN_POINT ( 'NONE',  ( -1.850000000000019200, -0.004000000000000000100, 0.4749999999999945900 ) ) ;
#231 = AXIS2_PLACEMENT_3D ( 'NONE', #744, #82, #207 ) ;
#232 = FILL_AREA_STYLE_COLOUR ( '', #168 ) ;
#233 = FACE_OUTER_BOUND ( 'NONE', #542, .T. ) ;
#234 = ORIENTED_EDGE ( 'NONE', *, *, #657, .T. ) ;
#235 = EDGE_LOOP ( 'NONE', ( #791, #153, #87, #789 ) ) ;
#236 =( LENGTH_UNIT ( ) NAMED_UNIT ( * ) SI_UNIT ( .MILLI., .METRE. ) );
#237 = VECTOR ( 'NONE', #414, 1000.000000000000000 ) ;
#238 = COLOUR_RGB ( '',0.7921568627450980000, 0.8196078431372548800, 0.9333333333333333500 ) ;
#239 = EDGE_LOOP ( 'NONE', ( #5, #45, #63, #717 ) ) ;
#240 = PLANE ( 'NONE',  #549 ) ;
#241 = FACE_OUTER_BOUND ( 'NONE', #685, .T. ) ;
#242 = DIRECTION ( 'NONE',  ( 0.0000000000000000000, -0.0000000000000000000, 1.000000000000000000 ) ) ;
#243 = STYLED_ITEM ( 'NONE', ( #349 ), #687 ) ;
#244 = EDGE_CURVE ( 'NONE', #285, #399, #360, .T. ) ;
#245 = FACE_OUTER_BOUND ( 'NONE', #319, .T. ) ;
#246 = STYLED_ITEM ( 'NONE', ( #648 ), #494 ) ;
#247 = PRESENTATION_STYLE_ASSIGNMENT (( #712 ) ) ;
#248 = PRESENTATION_STYLE_ASSIGNMENT (( #365 ) ) ;
#249 = ADVANCED_FACE ( 'NONE', ( #129 ), #99, .F. ) ;
#250 = SURFACE_STYLE_FILL_AREA ( #455 ) ;
#251 = UNCERTAINTY_MEASURE_WITH_UNIT (LENGTH_MEASURE( 1.000000000000000100E-005 ), #48, 'distance_accuracy_value', 'NONE');
#252 = VECTOR ( 'NONE', #781, 1000.000000000000000 ) ;
#253 = CARTESIAN_POINT ( 'NONE',  ( -1.250000000000019300, -0.004000000000000000100, 0.4749999999999945900 ) ) ;
#254 = AXIS2_PLACEMENT_3D ( 'NONE', #274, #448, #511 ) ;
#255 = CARTESIAN_POINT ( 'NONE',  ( 1.259459165297579700, 1.000000000000000000, -0.7594591652976139300 ) ) ;
#256 = LINE ( 'NONE', #459, #716 ) ;
#257 = EDGE_LOOP ( 'NONE', ( #341, #543, #150, #545 ) ) ;
#258 = ORIENTED_EDGE ( 'NONE', *, *, #64, .F. ) ;
#259 = LINE ( 'NONE', #419, #558 ) ;
#260 =( GEOMETRIC_REPRESENTATION_CONTEXT ( 3 ) GLOBAL_UNCERTAINTY_ASSIGNED_CONTEXT ( ( #350 ) ) GLOBAL_UNIT_ASSIGNED_CONTEXT ( ( #313, #119, #187 ) ) REPRESENTATION_CONTEXT ( 'NONE', 'WORKASPACE' ) );
#261 = SURFACE_STYLE_FILL_AREA ( #575 ) ;
#262 = ORIENTED_EDGE ( 'NONE', *, *, #663, .F. ) ;
#263 = SURFACE_STYLE_FILL_AREA ( #719 ) ;
#264 = UNCERTAINTY_MEASURE_WITH_UNIT (LENGTH_MEASURE( 1.000000000000000100E-005 ), #364, 'distance_accuracy_value', 'NONE');
#265 = SURFACE_SIDE_STYLE ('',( #250 ) ) ;
#266 = EDGE_CURVE ( 'NONE', #742, #269, #740, .T. ) ;
#267 =( LENGTH_UNIT ( ) NAMED_UNIT ( * ) SI_UNIT ( .MILLI., .METRE. ) );
#268 = CARTESIAN_POINT ( 'NONE',  ( 1.346796873754384300, 0.3785599136240302400, -0.8467968737544190300 ) ) ;
#269 = VERTEX_POINT ( 'NONE', #172 ) ;
#270 = VECTOR ( 'NONE', #440, 1000.000000000000000 ) ;
#271 = CARTESIAN_POINT ( 'NONE',  ( 0.0000000000000000000, 0.0000000000000000000, 0.0000000000000000000 ) ) ;
#272 = ADVANCED_FACE ( 'NONE', ( #275 ), #421, .F. ) ;
#273 = MECHANICAL_DESIGN_GEOMETRIC_PRESENTATION_REPRESENTATION (  '', ( #194 ), #111 ) ;
#274 = CARTESIAN_POINT ( 'NONE',  ( -1.850000000000019200, -0.004000000000000000100, 0.4749999999999945900 ) ) ;
#275 = FACE_OUTER_BOUND ( 'NONE', #622, .T. ) ;
#276 = SURFACE_STYLE_USAGE ( .BOTH. , #12 ) ;
#277 = PLANE ( 'NONE',  #715 ) ;
#278 =( GEOMETRIC_REPRESENTATION_CONTEXT ( 3 ) GLOBAL_UNCERTAINTY_ASSIGNED_CONTEXT ( ( #621 ) ) GLOBAL_UNIT_ASSIGNED_CONTEXT ( ( #103, #352, #770 ) ) REPRESENTATION_CONTEXT ( 'NONE', 'WORKASPACE' ) );
#279 = SURFACE_STYLE_USAGE ( .BOTH. , #265 ) ;
#280 = LINE ( 'NONE', #50, #487 ) ;
#281 = ORIENTED_EDGE ( 'NONE', *, *, #214, .T. ) ;
#282 = UNCERTAINTY_MEASURE_WITH_UNIT (LENGTH_MEASURE( 1.000000000000000100E-005 ), #741, 'distance_accuracy_value', 'NONE');
#283 = DIRECTION ( 'NONE',  ( -0.1378445374916285900, -0.9808148484639890300, -0.1378445374916285900 ) ) ;
#284 = SURFACE_STYLE_FILL_AREA ( #570 ) ;
#285 = VERTEX_POINT ( 'NONE', #474 ) ;
#286 =( LENGTH_UNIT ( ) NAMED_UNIT ( * ) SI_UNIT ( .MILLI., .METRE. ) );
#287 = FILL_AREA_STYLE ('',( #535 ) ) ;
#288 = CARTESIAN_POINT ( 'NONE',  ( 1.850000000000019000, -0.004000000000000000100, -0.4750000000000054200 ) ) ;
#289 = VERTEX_POINT ( 'NONE', #597 ) ;
#290 = SURFACE_STYLE_USAGE ( .BOTH. , #596 ) ;
#291 = ORIENTED_EDGE ( 'NONE', *, *, #629, .F. ) ;
#292 = FILL_AREA_STYLE ('',( #225 ) ) ;
#293 = VECTOR ( 'NONE', #759, 1000.000000000000000 ) ;
#294 = STYLED_ITEM ( 'NONE', ( #13 ), #8 ) ;
#295 = DIRECTION ( 'NONE',  ( -0.0000000000000000000, 1.000000000000000000, -0.0000000000000000000 ) ) ;
#296 = CARTESIAN_POINT ( 'NONE',  ( 1.399999999999970600, 0.0000000000000000000, -0.9000000000000053500 ) ) ;
#297 = PRODUCT ( 'SOD-123FL', 'SOD-123FL', '', ( #90 ) ) ;
#298 = DIRECTION ( 'NONE',  ( 0.0000000000000000000, -1.000000000000000000, 0.0000000000000000000 ) ) ;
#299 = PLANE ( 'NONE',  #345 ) ;
#300 = PRESENTATION_LAYER_ASSIGNMENT (  '', '', ( #666 ) ) ;
#301 = LINE ( 'NONE', #391, #496 ) ;
#302 =( LENGTH_UNIT ( ) NAMED_UNIT ( * ) SI_UNIT ( .MILLI., .METRE. ) );
#303 = EDGE_LOOP ( 'NONE', ( #465, #449, #380, #682 ) ) ;
#304 =( NAMED_UNIT ( * ) SI_UNIT ( $, .STERADIAN. ) SOLID_ANGLE_UNIT ( ) );
#305 = ORIENTED_EDGE ( 'NONE', *, *, #709, .T. ) ;
#306 = DIRECTION ( 'NONE',  ( -1.000000000000000000, 0.0000000000000000000, -0.0000000000000000000 ) ) ;
#307 = DIRECTION ( 'NONE',  ( -0.0000000000000000000, 1.000000000000000000, -0.0000000000000000000 ) ) ;
#308 = PLANE ( 'NONE',  #412 ) ;
#309 = SURFACE_STYLE_USAGE ( .BOTH. , #609 ) ;
#310 =( NAMED_UNIT ( * ) PLANE_ANGLE_UNIT ( ) SI_UNIT ( $, .RADIAN. ) );
#311 = ORIENTED_EDGE ( 'NONE', *, *, #617, .F. ) ;
#312 = LINE ( 'NONE', #155, #237 ) ;
#313 =( LENGTH_UNIT ( ) NAMED_UNIT ( * ) SI_UNIT ( .MILLI., .METRE. ) );
#314 = MECHANICAL_DESIGN_GEOMETRIC_PRESENTATION_REPRESENTATION (  '', ( #243 ), #17 ) ;
#315 = UNCERTAINTY_MEASURE_WITH_UNIT (LENGTH_MEASURE( 1.000000000000000100E-005 ), #761, 'distance_accuracy_value', 'NONE');
#316 = DIRECTION ( 'NONE',  ( -0.0000000000000000000, 0.0000000000000000000, 1.000000000000000000 ) ) ;
#317 = SURFACE_SIDE_STYLE ('',( #475 ) ) ;
#318 = ADVANCED_FACE ( 'NONE', ( #730 ), #299, .F. ) ;
#319 = EDGE_LOOP ( 'NONE', ( #642, #580, #330, #557 ) ) ;
#320 = STYLED_ITEM ( 'NONE', ( #573 ), #374 ) ;
#321 = CARTESIAN_POINT ( 'NONE',  ( 1.250000000000019300, 0.1499999999999999900, 0.4749999999999945900 ) ) ;
#322 = VERTEX_POINT ( 'NONE', #367 ) ;
#323 = PRODUCT_DEFINITION_SHAPE ( 'NONE', 'NONE',  #726 ) ;
#324 = ORIENTED_EDGE ( 'NONE', *, *, #425, .T. ) ;
#325 = EDGE_CURVE ( 'NONE', #632, #285, #491, .T. ) ;
#326 = PRESENTATION_STYLE_ASSIGNMENT (( #309 ) ) ;
#327 = DIRECTION ( 'NONE',  ( 0.0000000000000000000, 0.0000000000000000000, -1.000000000000000000 ) ) ;
#328 = DIRECTION ( 'NONE',  ( 0.0000000000000000000, -1.000000000000000000, 0.0000000000000000000 ) ) ;
#329 = PRESENTATION_STYLE_ASSIGNMENT (( #10 ) ) ;
#330 = ORIENTED_EDGE ( 'NONE', *, *, #786, .T. ) ;
#331 = DIRECTION ( 'NONE',  ( 2.282530889443167500E-016, -0.0000000000000000000, -1.000000000000000000 ) ) ;
#332 = PLANE ( 'NONE',  #231 ) ;
#333 =( NAMED_UNIT ( * ) PLANE_ANGLE_UNIT ( ) SI_UNIT ( $, .RADIAN. ) );
#334 = ADVANCED_FACE ( 'NONE', ( #699 ), #605, .F. ) ;
#335 =( GEOMETRIC_REPRESENTATION_CONTEXT ( 3 ) GLOBAL_UNCERTAINTY_ASSIGNED_CONTEXT ( ( #700 ) ) GLOBAL_UNIT_ASSIGNED_CONTEXT ( ( #68, #3, #191 ) ) REPRESENTATION_CONTEXT ( 'NONE', 'WORKASPACE' ) );
#336 = SURFACE_SIDE_STYLE ('',( #382 ) ) ;
#337 = SURFACE_SIDE_STYLE ('',( #284 ) ) ;
#338 = CARTESIAN_POINT ( 'NONE',  ( -1.850000000000019000, 0.1499999999999999900, -0.4750000000000054200 ) ) ;
#339 = LINE ( 'NONE', #386, #649 ) ;
#340 = FACE_OUTER_BOUND ( 'NONE', #239, .T. ) ;
#341 = ORIENTED_EDGE ( 'NONE', *, *, #686, .F. ) ;
#342 = PRESENTATION_STYLE_ASSIGNMENT (( #476 ) ) ;
#343 = CARTESIAN_POINT ( 'NONE',  ( -1.400000000000019200, 0.0000000000000000000, -0.9000000000000053500 ) ) ;
#344 = SHAPE_DEFINITION_REPRESENTATION ( #323, #592 ) ;
#345 = AXIS2_PLACEMENT_3D ( 'NONE', #594, #787, #107 ) ;
#346 = FILL_AREA_STYLE_COLOUR ( '', #238 ) ;
#347 = EDGE_LOOP ( 'NONE', ( #105, #44, #718, #489 ) ) ;
#348 = EDGE_CURVE ( 'NONE', #116, #742, #760, .T. ) ;
#349 = PRESENTATION_STYLE_ASSIGNMENT (( #751 ) ) ;
#350 = UNCERTAINTY_MEASURE_WITH_UNIT (LENGTH_MEASURE( 1.000000000000000100E-005 ), #313, 'distance_accuracy_value', 'NONE');
#351 = VERTEX_POINT ( 'NONE', #222 ) ;
#352 =( NAMED_UNIT ( * ) PLANE_ANGLE_UNIT ( ) SI_UNIT ( $, .RADIAN. ) );
#353 = CARTESIAN_POINT ( 'NONE',  ( -1.400000000000019200, 0.0000000000000000000, 0.8999999999999945800 ) ) ;
#354 =( NAMED_UNIT ( * ) PLANE_ANGLE_UNIT ( ) SI_UNIT ( $, .RADIAN. ) );
#355 = DIRECTION ( 'NONE',  ( 1.000000000000000000, -0.0000000000000000000, -0.0000000000000000000 ) ) ;
#356 = LINE ( 'NONE', #180, #777 ) ;
#357 = SURFACE_STYLE_FILL_AREA ( #505 ) ;
#358 = CARTESIAN_POINT ( 'NONE',  ( -1.850000000000019000, 0.1499999999999999900, -0.4750000000000054200 ) ) ;
#359 = SURFACE_STYLE_FILL_AREA ( #215 ) ;
#360 = LINE ( 'NONE', #653, #184 ) ;
#361 = CARTESIAN_POINT ( 'NONE',  ( 1.850000000000019000, -0.004000000000000000100, -0.4750000000000054200 ) ) ;
#362 = AXIS2_PLACEMENT_3D ( 'NONE', #361, #776, #415 ) ;
#363 = CARTESIAN_POINT ( 'NONE',  ( -1.400000000000019200, 0.0000000000000000000, 0.8999999999999945800 ) ) ;
#364 =( LENGTH_UNIT ( ) NAMED_UNIT ( * ) SI_UNIT ( .MILLI., .METRE. ) );
#365 = SURFACE_STYLE_USAGE ( .BOTH. , #607 ) ;
#366 = STYLED_ITEM ( 'NONE', ( #248 ), #72 ) ;
#367 = CARTESIAN_POINT ( 'NONE',  ( 1.850000000000019000, -0.004000000000000000100, -0.4750000000000054200 ) ) ;
#368 = CLOSED_SHELL ( 'NONE', ( #272, #72, #636, #120, #494, #249 ) ) ;
#369 = VECTOR ( 'NONE', #200, 1000.000000000000000 ) ;
#370 = SURFACE_STYLE_FILL_AREA ( #634 ) ;
#371 = PRESENTATION_LAYER_ASSIGNMENT (  '', '', ( #194 ) ) ;
#372 = FILL_AREA_STYLE_COLOUR ( '', #94 ) ;
#373 = EDGE_CURVE ( 'NONE', #725, #461, #146, .T. ) ;
#374 = ADVANCED_FACE ( 'NONE', ( #784 ), #240, .T. ) ;
#375 = COLOUR_RGB ( '',0.7921568627450980000, 0.8196078431372548800, 0.9333333333333333500 ) ;
#376 = FILL_AREA_STYLE_COLOUR ( '', #27 ) ;
#377 = PRESENTATION_LAYER_ASSIGNMENT (  '', '', ( #437 ) ) ;
#378 = ORIENTED_EDGE ( 'NONE', *, *, #629, .T. ) ;
#379 = PRESENTATION_LAYER_ASSIGNMENT (  '', '', ( #246 ) ) ;
#380 = ORIENTED_EDGE ( 'NONE', *, *, #214, .F. ) ;
#381 = LINE ( 'NONE', #221, #175 ) ;
#382 = SURFACE_STYLE_FILL_AREA ( #510 ) ;
#383 =( GEOMETRIC_REPRESENTATION_CONTEXT ( 3 ) GLOBAL_UNCERTAINTY_ASSIGNED_CONTEXT ( ( #161 ) ) GLOBAL_UNIT_ASSIGNED_CONTEXT ( ( #267, #136, #69 ) ) REPRESENTATION_CONTEXT ( 'NONE', 'WORKASPACE' ) );
#384 = SURFACE_STYLE_USAGE ( .BOTH. , #739 ) ;
#385 = FILL_AREA_STYLE_COLOUR ( '', #504 ) ;
#386 = CARTESIAN_POINT ( 'NONE',  ( 1.250000000000019300, -0.004000000000000000100, 0.4749999999999945900 ) ) ;
#387 = MECHANICAL_DESIGN_GEOMETRIC_PRESENTATION_REPRESENTATION (  '', ( #595 ), #499 ) ;
#388 = COLOUR_RGB ( '',0.7764705882352941300, 0.7568627450980391900, 0.7372549019607843600 ) ;
#389 = CARTESIAN_POINT ( 'NONE',  ( -1.259459165297627900, 1.000000000000000000, 0.7594591652976030400 ) ) ;
#390 = ADVANCED_FACE ( 'NONE', ( #241 ), #610, .T. ) ;
#391 = CARTESIAN_POINT ( 'NONE',  ( 1.850000000000019200, -0.004000000000000000100, 0.4749999999999945900 ) ) ;
#392 = FILL_AREA_STYLE_COLOUR ( '', #54 ) ;
#393 = MECHANICAL_DESIGN_GEOMETRIC_PRESENTATION_REPRESENTATION (  '', ( #633 ), #743 ) ;
#394 = SURFACE_SIDE_STYLE ('',( #176 ) ) ;
#395 = CARTESIAN_POINT ( 'NONE',  ( 1.250000000000019300, 0.1499999999999999900, -0.4750000000000054200 ) ) ;
#396 = SURFACE_STYLE_FILL_AREA ( #163 ) ;
#397 = VERTEX_POINT ( 'NONE', #321 ) ;
#398 = CARTESIAN_POINT ( 'NONE',  ( -1.850000000000019200, -0.004000000000000000100, 0.4749999999999945900 ) ) ;
#399 = VERTEX_POINT ( 'NONE', #683 ) ;
#400 = EDGE_LOOP ( 'NONE', ( #1, #291, #165, #93 ) ) ;
#401 =( NAMED_UNIT ( * ) PLANE_ANGLE_UNIT ( ) SI_UNIT ( $, .RADIAN. ) );
#402 = CARTESIAN_POINT ( 'NONE',  ( 1.850000000000019200, -0.004000000000000000100, 0.4749999999999945900 ) ) ;
#403 = UNCERTAINTY_MEASURE_WITH_UNIT (LENGTH_MEASURE( 1.000000000000000100E-005 ), #236, 'distance_accuracy_value', 'NONE');
#404 = PRESENTATION_STYLE_ASSIGNMENT (( #112 ) ) ;
#405 = MECHANICAL_DESIGN_GEOMETRIC_PRESENTATION_REPRESENTATION (  '', ( #666 ), #164 ) ;
#406 = PLANE ( 'NONE',  #783 ) ;
#407 = EDGE_LOOP ( 'NONE', ( #721, #647, #144, #524 ) ) ;
#408 = DIRECTION ( 'NONE',  ( 1.000000000000000000, 0.0000000000000000000, 0.0000000000000000000 ) ) ;
#409 = FILL_AREA_STYLE_COLOUR ( '', #59 ) ;
#410 =( GEOMETRIC_REPRESENTATION_CONTEXT ( 3 ) GLOBAL_UNCERTAINTY_ASSIGNED_CONTEXT ( ( #403 ) ) GLOBAL_UNIT_ASSIGNED_CONTEXT ( ( #236, #722, #539 ) ) REPRESENTATION_CONTEXT ( 'NONE', 'WORKASPACE' ) );
#411 = LINE ( 'NONE', #541, #205 ) ;
#412 = AXIS2_PLACEMENT_3D ( 'NONE', #230, #667, #306 ) ;
#413 = DIRECTION ( 'NONE',  ( -0.0000000000000000000, 1.000000000000000000, -0.0000000000000000000 ) ) ;
#414 = DIRECTION ( 'NONE',  ( -0.0000000000000000000, 1.000000000000000000, -0.0000000000000000000 ) ) ;
#415 = DIRECTION ( 'NONE',  ( 1.000000000000000000, 0.0000000000000000000, -0.0000000000000000000 ) ) ;
#416 = SURFACE_STYLE_FILL_AREA ( #484 ) ;
#417 = CARTESIAN_POINT ( 'NONE',  ( -1.250000000000019300, -0.004000000000000000100, -0.4750000000000054200 ) ) ;
#418 = DIRECTION ( 'NONE',  ( -1.000000000000000000, -0.0000000000000000000, -0.0000000000000000000 ) ) ;
#419 = CARTESIAN_POINT ( 'NONE',  ( -1.850000000000019000, -0.004000000000000000100, -0.4750000000000054200 ) ) ;
#420 = UNCERTAINTY_MEASURE_WITH_UNIT (LENGTH_MEASURE( 1.000000000000000100E-005 ), #701, 'distance_accuracy_value', 'NONE');
#421 = PLANE ( 'NONE',  #774 ) ;
#422 = VECTOR ( 'NONE', #753, 1000.000000000000000 ) ;
#423 = ORIENTED_EDGE ( 'NONE', *, *, #244, .F. ) ;
#424 = COLOUR_RGB ( '',0.7764705882352941300, 0.7568627450980391900, 0.7372549019607843600 ) ;
#425 = EDGE_CURVE ( 'NONE', #285, #432, #280, .T. ) ;
#426 = LINE ( 'NONE', #145, #293 ) ;
#427 = CARTESIAN_POINT ( 'NONE',  ( -1.250000000000019300, -0.004000000000000000100, 0.4749999999999945900 ) ) ;
#428 = AXIS2_PLACEMENT_3D ( 'NONE', #36, #22, #711 ) ;
#429 = CARTESIAN_POINT ( 'NONE',  ( -1.400000000000019200, 1.000000000000000000, 0.7594591652976030400 ) ) ;
#430 = CARTESIAN_POINT ( 'NONE',  ( 0.0000000000000000000, 0.1499999999999999900, 0.0000000000000000000 ) ) ;
#431 =( GEOMETRIC_REPRESENTATION_CONTEXT ( 3 ) GLOBAL_UNCERTAINTY_ASSIGNED_CONTEXT ( ( #109 ) ) GLOBAL_UNIT_ASSIGNED_CONTEXT ( ( #714, #169, #661 ) ) REPRESENTATION_CONTEXT ( 'NONE', 'WORKASPACE' ) );
#432 = VERTEX_POINT ( 'NONE', #255 ) ;
#433 = LINE ( 'NONE', #795, #270 ) ;
#434 = SURFACE_STYLE_FILL_AREA ( #563 ) ;
#435 = DIRECTION ( 'NONE',  ( 0.0000000000000000000, 0.9902680687415703600, 0.1391731009600654700 ) ) ;
#436 = PRODUCT_DEFINITION_CONTEXT ( 'detailed design', #213, 'design' ) ;
#437 = STYLED_ITEM ( 'NONE', ( #603 ), #729 ) ;
#438 = SURFACE_STYLE_FILL_AREA ( #785 ) ;
#439 = SURFACE_STYLE_USAGE ( .BOTH. , #317 ) ;
#440 = DIRECTION ( 'NONE',  ( -0.0000000000000000000, 1.000000000000000000, -0.0000000000000000000 ) ) ;
#441 = VECTOR ( 'NONE', #316, 1000.000000000000000 ) ;
#442 = VERTEX_POINT ( 'NONE', #550 ) ;
#443 = EDGE_LOOP ( 'NONE', ( #800, #423, #190, #132 ) ) ;
#444 = STYLED_ITEM ( 'NONE', ( #639 ), #120 ) ;
#445 = CARTESIAN_POINT ( 'NONE',  ( 0.0000000000000000000, -0.004000000000000000100, 0.0000000000000000000 ) ) ;
#446 = VERTEX_POINT ( 'NONE', #616 ) ;
#447 =( GEOMETRIC_REPRESENTATION_CONTEXT ( 3 ) GLOBAL_UNCERTAINTY_ASSIGNED_CONTEXT ( ( #315 ) ) GLOBAL_UNIT_ASSIGNED_CONTEXT ( ( #761, #518, #88 ) ) REPRESENTATION_CONTEXT ( 'NONE', 'WORKASPACE' ) );
#448 = DIRECTION ( 'NONE',  ( 1.000000000000000000, 0.0000000000000000000, 2.282530889443167000E-016 ) ) ;
#449 = ORIENTED_EDGE ( 'NONE', *, *, #560, .T. ) ;
#450 = EDGE_CURVE ( 'NONE', #399, #600, #356, .T. ) ;
#451 = PRESENTATION_LAYER_ASSIGNMENT (  '', '', ( #444 ) ) ;
#452 = ADVANCED_FACE ( 'NONE', ( #114 ), #492, .F. ) ;
#453 = DIRECTION ( 'NONE',  ( 0.0000000000000000000, -0.0000000000000000000, 1.000000000000000000 ) ) ;
#454 =( NAMED_UNIT ( * ) PLANE_ANGLE_UNIT ( ) SI_UNIT ( $, .RADIAN. ) );
#455 = FILL_AREA_STYLE ('',( #392 ) ) ;
#456 = VERTEX_POINT ( 'NONE', #727 ) ;
#457 = AXIS2_PLACEMENT_3D ( 'NONE', #343, #754, #16 ) ;
#458 = APPLICATION_PROTOCOL_DEFINITION ( 'draft international standard', 'automotive_design', 1998, #149 ) ;
#459 = CARTESIAN_POINT ( 'NONE',  ( 1.250000000000019300, -0.004000000000000000100, -0.4750000000000054200 ) ) ;
#460 =( NAMED_UNIT ( * ) PLANE_ANGLE_UNIT ( ) SI_UNIT ( $, .RADIAN. ) );
#461 = VERTEX_POINT ( 'NONE', #57 ) ;
#462 = EDGE_CURVE ( 'NONE', #322, #725, #433, .T. ) ;
#463 = FILL_AREA_STYLE ('',( #346 ) ) ;
#464 = SURFACE_STYLE_USAGE ( .BOTH. , #216 ) ;
#465 = ORIENTED_EDGE ( 'NONE', *, *, #571, .T. ) ;
#466 = MECHANICAL_DESIGN_GEOMETRIC_PRESENTATION_REPRESENTATION (  '', ( #696 ), #55 ) ;
#467 = DIRECTION ( 'NONE',  ( 0.0000000000000000000, 0.0000000000000000000, -1.000000000000000000 ) ) ;
#468 = FACE_OUTER_BOUND ( 'NONE', #502, .T. ) ;
#469 =( LENGTH_UNIT ( ) NAMED_UNIT ( * ) SI_UNIT ( .MILLI., .METRE. ) );
#470 = PLANE ( 'NONE',  #201 ) ;
#471 = CARTESIAN_POINT ( 'NONE',  ( 1.250000000000019300, 0.1499999999999999900, 0.4749999999999945900 ) ) ;
#472 =( GEOMETRIC_REPRESENTATION_CONTEXT ( 3 ) GLOBAL_UNCERTAINTY_ASSIGNED_CONTEXT ( ( #210 ) ) GLOBAL_UNIT_ASSIGNED_CONTEXT ( ( #23, #708, #591 ) ) REPRESENTATION_CONTEXT ( 'NONE', 'WORKASPACE' ) );
#473 =( NAMED_UNIT ( * ) PLANE_ANGLE_UNIT ( ) SI_UNIT ( $, .RADIAN. ) );
#474 = CARTESIAN_POINT ( 'NONE',  ( 1.259459165297585500, 1.000000000000000000, 0.7594591652976030400 ) ) ;
#475 = SURFACE_STYLE_FILL_AREA ( #796 ) ;
#476 = SURFACE_STYLE_USAGE ( .BOTH. , #766 ) ;
#477 = LINE ( 'NONE', #70, #369 ) ;
#478 = LINE ( 'NONE', #42, #32 ) ;
#479 = VECTOR ( 'NONE', #519, 1000.000000000000000 ) ;
#480 = CARTESIAN_POINT ( 'NONE',  ( 1.250000000000019300, -0.004000000000000000100, -0.4750000000000054200 ) ) ;
#481 = SURFACE_STYLE_USAGE ( .BOTH. , #30 ) ;
#482 = ORIENTED_EDGE ( 'NONE', *, *, #506, .T. ) ;
#483 = FILL_AREA_STYLE ('',( #171 ) ) ;
#484 = FILL_AREA_STYLE ('',( #226 ) ) ;
#485 =( LENGTH_UNIT ( ) NAMED_UNIT ( * ) SI_UNIT ( .MILLI., .METRE. ) );
#486 = CLOSED_SHELL ( 'NONE', ( #318, #452, #137, #334, #568, #374 ) ) ;
#487 = VECTOR ( 'NONE', #181, 1000.000000000000000 ) ;
#488 = SURFACE_STYLE_FILL_AREA ( #292 ) ;
#489 = ORIENTED_EDGE ( 'NONE', *, *, #244, .T. ) ;
#490 = DIRECTION ( 'NONE',  ( 0.0000000000000000000, 1.000000000000000000, 0.0000000000000000000 ) ) ;
#491 = LINE ( 'NONE', #429, #802 ) ;
#492 = PLANE ( 'NONE',  #710 ) ;
#493 = MECHANICAL_DESIGN_GEOMETRIC_PRESENTATION_REPRESENTATION (  '', ( #531 ), #572 ) ;
#494 = ADVANCED_FACE ( 'NONE', ( #245 ), #507, .T. ) ;
#495 = CARTESIAN_POINT ( 'NONE',  ( -1.400000000000019200, 0.0000000000000000000, -0.9000000000000053500 ) ) ;
#496 = VECTOR ( 'NONE', #508, 1000.000000000000000 ) ;
#497 = LINE ( 'NONE', #353, #223 ) ;
#498 = SURFACE_SIDE_STYLE ('',( #73 ) ) ;
#499 =( GEOMETRIC_REPRESENTATION_CONTEXT ( 3 ) GLOBAL_UNCERTAINTY_ASSIGNED_CONTEXT ( ( #282 ) ) GLOBAL_UNIT_ASSIGNED_CONTEXT ( ( #741, #513, #566 ) ) REPRESENTATION_CONTEXT ( 'NONE', 'WORKASPACE' ) );
#500 = SURFACE_STYLE_FILL_AREA ( #229 ) ;
#501 = MANIFOLD_SOLID_BREP ( '填料-伸長2[1]', #486 ) ;
#502 = EDGE_LOOP ( 'NONE', ( #324, #234, #188, #61 ) ) ;
#503 = FILL_AREA_STYLE_COLOUR ( '', #579 ) ;
#504 = COLOUR_RGB ( '',0.7921568627450980000, 0.8196078431372548800, 0.9333333333333333500 ) ;
#505 = FILL_AREA_STYLE ('',( #520 ) ) ;
#506 = EDGE_CURVE ( 'NONE', #322, #561, #301, .T. ) ;
#507 = PLANE ( 'NONE',  #769 ) ;
#508 = DIRECTION ( 'NONE',  ( 2.282530889443167500E-016, -0.0000000000000000000, 1.000000000000000000 ) ) ;
#509 = SURFACE_STYLE_USAGE ( .BOTH. , #337 ) ;
#510 = FILL_AREA_STYLE ('',( #689 ) ) ;
#511 = DIRECTION ( 'NONE',  ( 2.282530889443167000E-016, 0.0000000000000000000, -1.000000000000000000 ) ) ;
#512 =( LENGTH_UNIT ( ) NAMED_UNIT ( * ) SI_UNIT ( .MILLI., .METRE. ) );
#513 =( NAMED_UNIT ( * ) PLANE_ANGLE_UNIT ( ) SI_UNIT ( $, .RADIAN. ) );
#514 = VECTOR ( 'NONE', #83, 1000.000000000000000 ) ;
#515 = FACE_OUTER_BOUND ( 'NONE', #303, .T. ) ;
#516 = PRESENTATION_STYLE_ASSIGNMENT (( #464 ) ) ;
#517 = VERTEX_POINT ( 'NONE', #532 ) ;
#518 =( NAMED_UNIT ( * ) PLANE_ANGLE_UNIT ( ) SI_UNIT ( $, .RADIAN. ) );
#519 = DIRECTION ( 'NONE',  ( -1.000000000000000000, 0.0000000000000000000, 0.0000000000000000000 ) ) ;
#520 = FILL_AREA_STYLE_COLOUR ( '', #192 ) ;
#521 = AXIS2_PLACEMENT_3D ( 'NONE', #162, #298, #151 ) ;
#522 = CARTESIAN_POINT ( 'NONE',  ( -1.400000000000019200, 0.0000000000000000000, -0.9000000000000053500 ) ) ;
#523 = CARTESIAN_POINT ( 'NONE',  ( 0.0000000000000000000, 0.0000000000000000000, 0.0000000000000000000 ) ) ;
#524 = ORIENTED_EDGE ( 'NONE', *, *, #736, .T. ) ;
#525 =( NAMED_UNIT ( * ) SI_UNIT ( $, .STERADIAN. ) SOLID_ANGLE_UNIT ( ) );
#526 = LINE ( 'NONE', #750, #479 ) ;
#527 = SURFACE_SIDE_STYLE ('',( #764 ) ) ;
#528 = SURFACE_STYLE_USAGE ( .BOTH. , #713 ) ;
#529 = DIRECTION ( 'NONE',  ( 0.0000000000000000000, 0.1391731009600654700, 0.9902680687415703600 ) ) ;
#530 = SURFACE_SIDE_STYLE ('',( #416 ) ) ;
#531 = STYLED_ITEM ( 'NONE', ( #645 ), #249 ) ;
#532 = CARTESIAN_POINT ( 'NONE',  ( -1.850000000000019000, -0.004000000000000000100, -0.4750000000000054200 ) ) ;
#533 = LINE ( 'NONE', #669, #142 ) ;
#534 = CARTESIAN_POINT ( 'NONE',  ( -1.400000000000019200, 0.0000000000000000000, 0.8999999999999945800 ) ) ;
#535 = FILL_AREA_STYLE_COLOUR ( '', #424 ) ;
#536 = EDGE_LOOP ( 'NONE', ( #758, #20, #14, #60 ) ) ;
#537 = PRESENTATION_STYLE_ASSIGNMENT (( #481 ) ) ;
#538 = STYLED_ITEM ( 'NONE', ( #516 ), #793 ) ;
#539 =( NAMED_UNIT ( * ) SI_UNIT ( $, .STERADIAN. ) SOLID_ANGLE_UNIT ( ) );
#540 = EDGE_CURVE ( 'NONE', #89, #116, #123, .T. ) ;
#541 = CARTESIAN_POINT ( 'NONE',  ( 1.250000000000019300, -0.004000000000000000100, 0.4749999999999945900 ) ) ;
#542 = EDGE_LOOP ( 'NONE', ( #482, #34, #588, #615 ) ) ;
#543 = ORIENTED_EDGE ( 'NONE', *, *, #560, .F. ) ;
#544 = PRESENTATION_LAYER_ASSIGNMENT (  '', '', ( #320 ) ) ;
#545 = ORIENTED_EDGE ( 'NONE', *, *, #644, .F. ) ;
#546 =( NAMED_UNIT ( * ) SI_UNIT ( $, .STERADIAN. ) SOLID_ANGLE_UNIT ( ) );
#547 = EDGE_CURVE ( 'NONE', #167, #778, #256, .T. ) ;
#548 = SURFACE_SIDE_STYLE ('',( #562 ) ) ;
#549 = AXIS2_PLACEMENT_3D ( 'NONE', #430, #490, #242 ) ;
#550 = CARTESIAN_POINT ( 'NONE',  ( -1.250000000000019300, 0.1499999999999999900, 0.4749999999999945900 ) ) ;
#551 = LINE ( 'NONE', #363, #77 ) ;
#552 = PRESENTATION_LAYER_ASSIGNMENT (  '', '', ( #614 ) ) ;
#553 = CARTESIAN_POINT ( 'NONE',  ( 1.850000000000019200, -0.004000000000000000100, 0.4749999999999945900 ) ) ;
#554 = UNCERTAINTY_MEASURE_WITH_UNIT (LENGTH_MEASURE( 1.000000000000000100E-005 ), #628, 'distance_accuracy_value', 'NONE');
#555 = MECHANICAL_DESIGN_GEOMETRIC_PRESENTATION_REPRESENTATION (  '', ( #11 ), #431 ) ;
#556 = LINE ( 'NONE', #358, #422 ) ;
#557 = ORIENTED_EDGE ( 'NONE', *, *, #128, .T. ) ;
#558 = VECTOR ( 'NONE', #408, 1000.000000000000000 ) ;
#559 = ORIENTED_EDGE ( 'NONE', *, *, #540, .F. ) ;
#560 = EDGE_CURVE ( 'NONE', #704, #703, #556, .T. ) ;
#561 = VERTEX_POINT ( 'NONE', #402 ) ;
#562 = SURFACE_STYLE_FILL_AREA ( #674 ) ;
#563 = FILL_AREA_STYLE ('',( #385 ) ) ;
#564 =( NAMED_UNIT ( * ) SI_UNIT ( $, .STERADIAN. ) SOLID_ANGLE_UNIT ( ) );
#565 = AXIS2_PLACEMENT_3D ( 'NONE', #523, #584, #651 ) ;
#566 =( NAMED_UNIT ( * ) SI_UNIT ( $, .STERADIAN. ) SOLID_ANGLE_UNIT ( ) );
#567 = ORIENTED_EDGE ( 'NONE', *, *, #64, .T. ) ;
#568 = ADVANCED_FACE ( 'NONE', ( #233 ), #406, .F. ) ;
#569 = VECTOR ( 'NONE', #131, 1000.000000000000000 ) ;
#570 = FILL_AREA_STYLE ('',( #693 ) ) ;
#571 = EDGE_CURVE ( 'NONE', #517, #704, #312, .T. ) ;
#572 =( GEOMETRIC_REPRESENTATION_CONTEXT ( 3 ) GLOBAL_UNCERTAINTY_ASSIGNED_CONTEXT ( ( #125 ) ) GLOBAL_UNIT_ASSIGNED_CONTEXT ( ( #590, #473, #154 ) ) REPRESENTATION_CONTEXT ( 'NONE', 'WORKASPACE' ) );
#573 = PRESENTATION_STYLE_ASSIGNMENT (( #613 ) ) ;
#574 =( NAMED_UNIT ( * ) SI_UNIT ( $, .STERADIAN. ) SOLID_ANGLE_UNIT ( ) );
#575 = FILL_AREA_STYLE ('',( #646 ) ) ;
#576 = AXIS2_PLACEMENT_3D ( 'NONE', #135, #199, #453 ) ;
#577 = DIRECTION ( 'NONE',  ( 0.1378445374916280600, -0.9808148484639891400, -0.1378445374916286200 ) ) ;
#578 = PRESENTATION_LAYER_ASSIGNMENT (  '', '', ( #538 ) ) ;
#579 = COLOUR_RGB ( '',0.7921568627450980000, 0.8196078431372548800, 0.9333333333333333500 ) ;
#580 = ORIENTED_EDGE ( 'NONE', *, *, #348, .T. ) ;
#581 = VECTOR ( 'NONE', #331, 1000.000000000000000 ) ;
#582 = EDGE_CURVE ( 'NONE', #397, #778, #76, .T. ) ;
#583 = MECHANICAL_DESIGN_GEOMETRIC_PRESENTATION_REPRESENTATION (  '', ( #320 ), #589 ) ;
#584 = DIRECTION ( 'NONE',  ( 0.0000000000000000000, 0.0000000000000000000, 1.000000000000000000 ) ) ;
#585 = SURFACE_SIDE_STYLE ('',( #488 ) ) ;
#586 = MECHANICAL_DESIGN_GEOMETRIC_PRESENTATION_REPRESENTATION (  '', ( #294 ), #383 ) ;
#587 = VECTOR ( 'NONE', #160, 1000.000000000000000 ) ;
#588 = ORIENTED_EDGE ( 'NONE', *, *, #663, .T. ) ;
#589 =( GEOMETRIC_REPRESENTATION_CONTEXT ( 3 ) GLOBAL_UNCERTAINTY_ASSIGNED_CONTEXT ( ( #251 ) ) GLOBAL_UNIT_ASSIGNED_CONTEXT ( ( #48, #310, #546 ) ) REPRESENTATION_CONTEXT ( 'NONE', 'WORKASPACE' ) );
#590 =( LENGTH_UNIT ( ) NAMED_UNIT ( * ) SI_UNIT ( .MILLI., .METRE. ) );
#591 =( NAMED_UNIT ( * ) SI_UNIT ( $, .STERADIAN. ) SOLID_ANGLE_UNIT ( ) );
#592 = ADVANCED_BREP_SHAPE_REPRESENTATION ( 'SOD-123FL', ( #793, #501, #687, #565 ), #672 ) ;
#593 = CARTESIAN_POINT ( 'NONE',  ( -1.850000000000019200, -0.004000000000000000100, 0.4749999999999945900 ) ) ;
#594 = CARTESIAN_POINT ( 'NONE',  ( 1.850000000000019200, -0.004000000000000000100, 0.4749999999999945900 ) ) ;
#595 = STYLED_ITEM ( 'NONE', ( #329 ), #636 ) ;
#596 = SURFACE_SIDE_STYLE ('',( #359 ) ) ;
#597 = CARTESIAN_POINT ( 'NONE',  ( -1.400000000000019200, 0.0000000000000000000, -0.9000000000000053500 ) ) ;
#598 = DIRECTION ( 'NONE',  ( -0.1378445374916286200, -0.9808148484639890300, 0.1378445374916286400 ) ) ;
#599 = SURFACE_STYLE_USAGE ( .BOTH. , #530 ) ;
#600 = VERTEX_POINT ( 'NONE', #296 ) ;
#601 = PRESENTATION_LAYER_ASSIGNMENT (  '', '', ( #696 ) ) ;
#602 = COLOUR_RGB ( '',0.7764705882352941300, 0.7568627450980391900, 0.7372549019607843600 ) ;
#603 = PRESENTATION_STYLE_ASSIGNMENT (( #279 ) ) ;
#604 = ORIENTED_EDGE ( 'NONE', *, *, #582, .T. ) ;
#605 = PLANE ( 'NONE',  #362 ) ;
#606 = UNCERTAINTY_MEASURE_WITH_UNIT (LENGTH_MEASURE( 1.000000000000000100E-005 ), #206, 'distance_accuracy_value', 'NONE');
#607 = SURFACE_SIDE_STYLE ('',( #52 ) ) ;
#608 = EDGE_CURVE ( 'NONE', #600, #289, #381, .T. ) ;
#609 = SURFACE_SIDE_STYLE ('',( #263 ) ) ;
#610 = PLANE ( 'NONE',  #170 ) ;
#611 = COLOUR_RGB ( '',0.7764705882352941300, 0.7568627450980391900, 0.7372549019607843600 ) ;
#612 = ORIENTED_EDGE ( 'NONE', *, *, #736, .F. ) ;
#613 = SURFACE_STYLE_USAGE ( .BOTH. , #670 ) ;
#614 = STYLED_ITEM ( 'NONE', ( #84 ), #568 ) ;
#615 = ORIENTED_EDGE ( 'NONE', *, *, #617, .T. ) ;
#616 = CARTESIAN_POINT ( 'NONE',  ( 1.250000000000019300, -0.004000000000000000100, 0.4749999999999945900 ) ) ;
#617 = EDGE_CURVE ( 'NONE', #167, #322, #4, .T. ) ;
#618 = STYLED_ITEM ( 'NONE', ( #342 ), #137 ) ;
#619 = PRODUCT_DEFINITION_FORMATION_WITH_SPECIFIED_SOURCE ( 'ANY', '', #297, .NOT_KNOWN. ) ;
#620 = ADVANCED_FACE ( 'NONE', ( #62 ), #654, .T. ) ;
#621 = UNCERTAINTY_MEASURE_WITH_UNIT (LENGTH_MEASURE( 1.000000000000000100E-005 ), #103, 'distance_accuracy_value', 'NONE');
#622 = EDGE_LOOP ( 'NONE', ( #281, #688, #113, #559 ) ) ;
#623 = COLOUR_RGB ( '',0.2509803921568627400, 0.2509803921568627400, 0.2509803921568627400 ) ;
#624 = FACE_OUTER_BOUND ( 'NONE', #347, .T. ) ;
#625 = EDGE_CURVE ( 'NONE', #461, #397, #31, .T. ) ;
#626 = ORIENTED_EDGE ( 'NONE', *, *, #786, .F. ) ;
#627 = PRESENTATION_STYLE_ASSIGNMENT (( #439 ) ) ;
#628 =( LENGTH_UNIT ( ) NAMED_UNIT ( * ) SI_UNIT ( .MILLI., .METRE. ) );
#629 = EDGE_CURVE ( 'NONE', #778, #725, #51, .T. ) ;
#630 =( LENGTH_UNIT ( ) NAMED_UNIT ( * ) SI_UNIT ( .MILLI., .METRE. ) );
#631 = LINE ( 'NONE', #67, #569 ) ;
#632 = VERTEX_POINT ( 'NONE', #389 ) ;
#633 = STYLED_ITEM ( 'NONE', ( #404 ), #390 ) ;
#634 = FILL_AREA_STYLE ('',( #691 ) ) ;
#635 = CARTESIAN_POINT ( 'NONE',  ( 1.850000000000019000, 0.1499999999999999900, -0.4750000000000054200 ) ) ;
#636 = ADVANCED_FACE ( 'NONE', ( #182 ), #209, .F. ) ;
#637 = PRESENTATION_LAYER_ASSIGNMENT (  '', '', ( #243 ) ) ;
#638 = CARTESIAN_POINT ( 'NONE',  ( -1.250000000000019300, 0.1499999999999999900, -0.4750000000000054200 ) ) ;
#639 = PRESENTATION_STYLE_ASSIGNMENT (( #290 ) ) ;
#640 = STYLED_ITEM ( 'NONE', ( #537 ), #334 ) ;
#641 = UNCERTAINTY_MEASURE_WITH_UNIT (LENGTH_MEASURE( 1.000000000000000100E-005 ), #139, 'distance_accuracy_value', 'NONE');
#642 = ORIENTED_EDGE ( 'NONE', *, *, #540, .T. ) ;
#643 =( NAMED_UNIT ( * ) SI_UNIT ( $, .STERADIAN. ) SOLID_ANGLE_UNIT ( ) );
#644 = EDGE_CURVE ( 'NONE', #442, #269, #152, .T. ) ;
#645 = PRESENTATION_STYLE_ASSIGNMENT (( #655 ) ) ;
#646 = FILL_AREA_STYLE_COLOUR ( '', #375 ) ;
#647 = ORIENTED_EDGE ( 'NONE', *, *, #80, .F. ) ;
#648 = PRESENTATION_STYLE_ASSIGNMENT (( #122 ) ) ;
#649 = VECTOR ( 'NONE', #327, 1000.000000000000000 ) ;
#650 = COLOUR_RGB ( '',0.2509803921568627400, 0.2509803921568627400, 0.2509803921568627400 ) ;
#651 = DIRECTION ( 'NONE',  ( 1.000000000000000000, 0.0000000000000000000, 0.0000000000000000000 ) ) ;
#652 = STYLED_ITEM ( 'NONE', ( #677 ), #501 ) ;
#653 = CARTESIAN_POINT ( 'NONE',  ( 1.365797990270671600, 0.2433599444725936500, 0.8657979902706886000 ) ) ;
#654 = PLANE ( 'NONE',  #788 ) ;
#655 = SURFACE_STYLE_USAGE ( .BOTH. , #527 ) ;
#656 = DIRECTION ( 'NONE',  ( 0.0000000000000000000, -0.9902680687415702500, 0.1391731009600654400 ) ) ;
#657 = EDGE_CURVE ( 'NONE', #432, #351, #631, .T. ) ;
#658 =( NAMED_UNIT ( * ) SI_UNIT ( $, .STERADIAN. ) SOLID_ANGLE_UNIT ( ) );
#659 = PRESENTATION_LAYER_ASSIGNMENT (  '', '', ( #531 ) ) ;
#660 = FILL_AREA_STYLE ('',( #220 ) ) ;
#661 =( NAMED_UNIT ( * ) SI_UNIT ( $, .STERADIAN. ) SOLID_ANGLE_UNIT ( ) );
#662 = PLANE ( 'NONE',  #428 ) ;
#663 = EDGE_CURVE ( 'NONE', #446, #167, #339, .T. ) ;
#664 =( NAMED_UNIT ( * ) PLANE_ANGLE_UNIT ( ) SI_UNIT ( $, .RADIAN. ) );
#665 = COLOUR_RGB ( '',0.7764705882352941300, 0.7568627450980391900, 0.7372549019607843600 ) ;
#666 = STYLED_ITEM ( 'NONE', ( #143 ), #694 ) ;
#667 = DIRECTION ( 'NONE',  ( 0.0000000000000000000, 0.0000000000000000000, -1.000000000000000000 ) ) ;
#668 =( NAMED_UNIT ( * ) PLANE_ANGLE_UNIT ( ) SI_UNIT ( $, .RADIAN. ) );
#669 = CARTESIAN_POINT ( 'NONE',  ( 1.850000000000019200, -0.004000000000000000100, 0.4749999999999945900 ) ) ;
#670 = SURFACE_SIDE_STYLE ('',( #438 ) ) ;
#671 = ORIENTED_EDGE ( 'NONE', *, *, #762, .T. ) ;
#672 =( GEOMETRIC_REPRESENTATION_CONTEXT ( 3 ) GLOBAL_UNCERTAINTY_ASSIGNED_CONTEXT ( ( #196 ) ) GLOBAL_UNIT_ASSIGNED_CONTEXT ( ( #286, #697, #525 ) ) REPRESENTATION_CONTEXT ( 'NONE', 'WORKASPACE' ) );
#673 = PRESENTATION_STYLE_ASSIGNMENT (( #749 ) ) ;
#674 = FILL_AREA_STYLE ('',( #675 ) ) ;
#675 = FILL_AREA_STYLE_COLOUR ( '', #724 ) ;
#676 = PRESENTATION_LAYER_ASSIGNMENT (  '', '', ( #633 ) ) ;
#677 = PRESENTATION_STYLE_ASSIGNMENT (( #384 ) ) ;
#678 = VECTOR ( 'NONE', #413, 1000.000000000000000 ) ;
#679 = DIRECTION ( 'NONE',  ( -0.0000000000000000000, 0.0000000000000000000, -1.000000000000000000 ) ) ;
#680 = LINE ( 'NONE', #593, #78 ) ;
#681 = ORIENTED_EDGE ( 'NONE', *, *, #608, .T. ) ;
#682 = ORIENTED_EDGE ( 'NONE', *, *, #128, .F. ) ;
#683 = CARTESIAN_POINT ( 'NONE',  ( 1.399999999999977700, 0.0000000000000000000, 0.8999999999999945800 ) ) ;
#684 = STYLED_ITEM ( 'NONE', ( #627 ), #452 ) ;
#685 = EDGE_LOOP ( 'NONE', ( #681, #612, #124, #305 ) ) ;
#686 = EDGE_CURVE ( 'NONE', #703, #442, #477, .T. ) ;
#687 = MANIFOLD_SOLID_BREP ( '填料-伸長2[2]', #368 ) ;
#688 = ORIENTED_EDGE ( 'NONE', *, *, #686, .T. ) ;
#689 = FILL_AREA_STYLE_COLOUR ( '', #650 ) ;
#690 = CARTESIAN_POINT ( 'NONE',  ( 1.850000000000019000, 0.1499999999999999900, -0.4750000000000054200 ) ) ;
#691 = FILL_AREA_STYLE_COLOUR ( '', #780 ) ;
#692 = SURFACE_SIDE_STYLE ('',( #434 ) ) ;
#693 = FILL_AREA_STYLE_COLOUR ( '', #623 ) ;
#694 = ADVANCED_FACE ( 'NONE', ( #340 ), #277, .F. ) ;
#695 = COLOUR_RGB ( '',0.2509803921568627400, 0.2509803921568627400, 0.2509803921568627400 ) ;
#696 = STYLED_ITEM ( 'NONE', ( #100 ), #272 ) ;
#697 =( NAMED_UNIT ( * ) PLANE_ANGLE_UNIT ( ) SI_UNIT ( $, .RADIAN. ) );
#698 = DIRECTION ( 'NONE',  ( 0.0000000000000000000, 1.000000000000000000, 0.0000000000000000000 ) ) ;
#699 = FACE_OUTER_BOUND ( 'NONE', #765, .T. ) ;
#700 = UNCERTAINTY_MEASURE_WITH_UNIT (LENGTH_MEASURE( 1.000000000000000100E-005 ), #68, 'distance_accuracy_value', 'NONE');
#701 =( LENGTH_UNIT ( ) NAMED_UNIT ( * ) SI_UNIT ( .MILLI., .METRE. ) );
#702 = MECHANICAL_DESIGN_GEOMETRIC_PRESENTATION_REPRESENTATION (  '', ( #538 ), #58 ) ;
#703 = VERTEX_POINT ( 'NONE', #638 ) ;
#704 = VERTEX_POINT ( 'NONE', #338 ) ;
#705 = EDGE_LOOP ( 'NONE', ( #567, #604, #140, #262 ) ) ;
#706 = PRESENTATION_LAYER_ASSIGNMENT (  '', '', ( #595 ) ) ;
#707 = FILL_AREA_STYLE_COLOUR ( '', #388 ) ;
#708 =( NAMED_UNIT ( * ) PLANE_ANGLE_UNIT ( ) SI_UNIT ( $, .RADIAN. ) );
#709 = EDGE_CURVE ( 'NONE', #432, #600, #799, .T. ) ;
#710 = AXIS2_PLACEMENT_3D ( 'NONE', #553, #679, #53 ) ;
#711 = DIRECTION ( 'NONE',  ( 1.000000000000000000, 0.0000000000000000000, 0.0000000000000000000 ) ) ;
#712 = SURFACE_STYLE_USAGE ( .BOTH. , #585 ) ;
#713 = SURFACE_SIDE_STYLE ('',( #396 ) ) ;
#714 =( LENGTH_UNIT ( ) NAMED_UNIT ( * ) SI_UNIT ( .MILLI., .METRE. ) );
#715 = AXIS2_PLACEMENT_3D ( 'NONE', #271, #698, #197 ) ;
#716 = VECTOR ( 'NONE', #307, 1000.000000000000000 ) ;
#717 = ORIENTED_EDGE ( 'NONE', *, *, #608, .F. ) ;
#718 = ORIENTED_EDGE ( 'NONE', *, *, #425, .F. ) ;
#719 = FILL_AREA_STYLE ('',( #37 ) ) ;
#720 = FACE_OUTER_BOUND ( 'NONE', #407, .T. ) ;
#721 = ORIENTED_EDGE ( 'NONE', *, *, #731, .T. ) ;
#722 =( NAMED_UNIT ( * ) PLANE_ANGLE_UNIT ( ) SI_UNIT ( $, .RADIAN. ) );
#723 = FILL_AREA_STYLE_COLOUR ( '', #179 ) ;
#724 = COLOUR_RGB ( '',0.2509803921568627400, 0.2509803921568627400, 0.2509803921568627400 ) ;
#725 = VERTEX_POINT ( 'NONE', #690 ) ;
#726 = PRODUCT_DEFINITION ( 'UNKNOWN', '', #619, #436 ) ;
#727 = CARTESIAN_POINT ( 'NONE',  ( -1.400000000000019200, 0.0000000000000000000, 0.8999999999999945800 ) ) ;
#728 = DIRECTION ( 'NONE',  ( 0.0000000000000000000, 0.1391731009600654700, -0.9902680687415703600 ) ) ;
#729 = ADVANCED_FACE ( 'NONE', ( #720 ), #738, .T. ) ;
#730 = FACE_OUTER_BOUND ( 'NONE', #536, .T. ) ;
#731 = EDGE_CURVE ( 'NONE', #289, #456, #426, .T. ) ;
#732 = CLOSED_SHELL ( 'NONE', ( #56, #390, #729, #620, #8, #694 ) ) ;
#733 = FACE_OUTER_BOUND ( 'NONE', #705, .T. ) ;
#734 = LINE ( 'NONE', #19, #581 ) ;
#735 = UNCERTAINTY_MEASURE_WITH_UNIT (LENGTH_MEASURE( 1.000000000000000100E-005 ), #469, 'distance_accuracy_value', 'NONE');
#736 = EDGE_CURVE ( 'NONE', #351, #289, #746, .T. ) ;
#737 = PRESENTATION_LAYER_ASSIGNMENT (  '', '', ( #96 ) ) ;
#738 = PLANE ( 'NONE',  #457 ) ;
#739 = SURFACE_SIDE_STYLE ('',( #203 ) ) ;
#740 = LINE ( 'NONE', #40, #587 ) ;
#741 =( LENGTH_UNIT ( ) NAMED_UNIT ( * ) SI_UNIT ( .MILLI., .METRE. ) );
#742 = VERTEX_POINT ( 'NONE', #398 ) ;
#743 =( GEOMETRIC_REPRESENTATION_CONTEXT ( 3 ) GLOBAL_UNCERTAINTY_ASSIGNED_CONTEXT ( ( #9 ) ) GLOBAL_UNIT_ASSIGNED_CONTEXT ( ( #485, #110, #174 ) ) REPRESENTATION_CONTEXT ( 'NONE', 'WORKASPACE' ) );
#744 = CARTESIAN_POINT ( 'NONE',  ( 1.399999999999970600, 0.0000000000000000000, -0.9000000000000053500 ) ) ;
#745 = DIRECTION ( 'NONE',  ( -1.000000000000000000, -0.0000000000000000000, -0.0000000000000000000 ) ) ;
#746 = LINE ( 'NONE', #522, #757 ) ;
#747 =( NAMED_UNIT ( * ) SI_UNIT ( $, .STERADIAN. ) SOLID_ANGLE_UNIT ( ) );
#748 =( GEOMETRIC_REPRESENTATION_CONTEXT ( 3 ) GLOBAL_UNCERTAINTY_ASSIGNED_CONTEXT ( ( #782 ) ) GLOBAL_UNIT_ASSIGNED_CONTEXT ( ( #630, #133, #564 ) ) REPRESENTATION_CONTEXT ( 'NONE', 'WORKASPACE' ) );
#749 = SURFACE_STYLE_USAGE ( .BOTH. , #394 ) ;
#750 = CARTESIAN_POINT ( 'NONE',  ( 1.850000000000019200, -0.004000000000000000100, 0.4749999999999945900 ) ) ;
#751 = SURFACE_STYLE_USAGE ( .BOTH. , #692 ) ;
#752 = ORIENTED_EDGE ( 'NONE', *, *, #571, .F. ) ;
#753 = DIRECTION ( 'NONE',  ( 1.000000000000000000, 0.0000000000000000000, 0.0000000000000000000 ) ) ;
#754 = DIRECTION ( 'NONE',  ( -0.9902680687415703600, 0.1391731009600654700, 0.0000000000000000000 ) ) ;
#755 = FACE_OUTER_BOUND ( 'NONE', #235, .T. ) ;
#756 = MECHANICAL_DESIGN_GEOMETRIC_PRESENTATION_REPRESENTATION (  '', ( #444 ), #278 ) ;
#757 = VECTOR ( 'NONE', #283, 1000.000000000000100 ) ;
#758 = ORIENTED_EDGE ( 'NONE', *, *, #462, .T. ) ;
#759 = DIRECTION ( 'NONE',  ( 0.0000000000000000000, 0.0000000000000000000, 1.000000000000000000 ) ) ;
#760 = LINE ( 'NONE', #47, #227 ) ;
#761 =( LENGTH_UNIT ( ) NAMED_UNIT ( * ) SI_UNIT ( .MILLI., .METRE. ) );
#762 = EDGE_CURVE ( 'NONE', #269, #704, #734, .T. ) ;
#763 = UNCERTAINTY_MEASURE_WITH_UNIT (LENGTH_MEASURE( 1.000000000000000100E-005 ), #98, 'distance_accuracy_value', 'NONE');
#764 = SURFACE_STYLE_FILL_AREA ( #660 ) ;
#765 = EDGE_LOOP ( 'NONE', ( #212, #378, #186, #311 ) ) ;
#766 = SURFACE_SIDE_STYLE ('',( #208 ) ) ;
#767 = VECTOR ( 'NONE', #81, 1000.000000000000000 ) ;
#768 = LINE ( 'NONE', #79, #193 ) ;
#769 = AXIS2_PLACEMENT_3D ( 'NONE', #445, #328, #65 ) ;
#770 =( NAMED_UNIT ( * ) SI_UNIT ( $, .STERADIAN. ) SOLID_ANGLE_UNIT ( ) );
#771 = DIRECTION ( 'NONE',  ( 0.0000000000000000000, 1.000000000000000000, 0.0000000000000000000 ) ) ;
#772 = CARTESIAN_POINT ( 'NONE',  ( -1.250000000000019300, -0.004000000000000000100, 0.4749999999999945900 ) ) ;
#773 = CARTESIAN_POINT ( 'NONE',  ( 0.0000000000000000000, -0.004000000000000000100, 0.0000000000000000000 ) ) ;
#774 = AXIS2_PLACEMENT_3D ( 'NONE', #427, #43, #106 ) ;
#775 = DIRECTION ( 'NONE',  ( -0.0000000000000000000, 1.000000000000000000, -0.0000000000000000000 ) ) ;
#776 = DIRECTION ( 'NONE',  ( 0.0000000000000000000, 0.0000000000000000000, 1.000000000000000000 ) ) ;
#777 = VECTOR ( 'NONE', #118, 1000.000000000000000 ) ;
#778 = VERTEX_POINT ( 'NONE', #395 ) ;
#779 = PRESENTATION_LAYER_ASSIGNMENT (  '', '', ( #294 ) ) ;
#780 = COLOUR_RGB ( '',0.2509803921568627400, 0.2509803921568627400, 0.2509803921568627400 ) ;
#781 = DIRECTION ( 'NONE',  ( 2.282530889443167500E-016, -0.0000000000000000000, 1.000000000000000000 ) ) ;
#782 = UNCERTAINTY_MEASURE_WITH_UNIT (LENGTH_MEASURE( 1.000000000000000100E-005 ), #630, 'distance_accuracy_value', 'NONE');
#783 = AXIS2_PLACEMENT_3D ( 'NONE', #773, #771, #101 ) ;
#784 = FACE_OUTER_BOUND ( 'NONE', #400, .T. ) ;
#785 = FILL_AREA_STYLE ('',( #232 ) ) ;
#786 = EDGE_CURVE ( 'NONE', #742, #517, #680, .T. ) ;
#787 = DIRECTION ( 'NONE',  ( -1.000000000000000000, 0.0000000000000000000, 2.282530889443167000E-016 ) ) ;
#788 = AXIS2_PLACEMENT_3D ( 'NONE', #534, #529, #656 ) ;
#789 = ORIENTED_EDGE ( 'NONE', *, *, #348, .F. ) ;
#790 = VECTOR ( 'NONE', #745, 1000.000000000000000 ) ;
#791 = ORIENTED_EDGE ( 'NONE', *, *, #91, .T. ) ;
#792 = STYLED_ITEM ( 'NONE', ( #21 ), #56 ) ;
#793 = MANIFOLD_SOLID_BREP ( '填料-伸長1', #732 ) ;
#794 = PRESENTATION_LAYER_ASSIGNMENT (  '', '', ( #11 ) ) ;
#795 = CARTESIAN_POINT ( 'NONE',  ( 1.850000000000019000, -0.004000000000000000100, -0.4750000000000054200 ) ) ;
#796 = FILL_AREA_STYLE ('',( #372 ) ) ;
#797 = MECHANICAL_DESIGN_GEOMETRIC_PRESENTATION_REPRESENTATION (  '', ( #614 ), #472 ) ;
#798 = FILL_AREA_STYLE ('',( #376 ) ) ;
#799 = LINE ( 'NONE', #268, #185 ) ;
#800 = ORIENTED_EDGE ( 'NONE', *, *, #148, .T. ) ;
#801 = ORIENTED_EDGE ( 'NONE', *, *, #46, .F. ) ;
#802 = VECTOR ( 'NONE', #355, 1000.000000000000000 ) ;
ENDSEC;
END-ISO-10303-21;
